<svg id="svg" version="1.1" xmlns="http://www.w3.org/2000/svg" xmlns:xlink="http://www.w3.org/1999/xlink" width="400" height="109.59860383944154" viewBox="0, 0, 400,109.59860383944154"><g id="svgg"><path id="path0" d="M16.333 22.422 C 9.292 23.411,6.596 26.447,5.843 34.237 C 5.531 37.463,5.335 37.006,7.996 39.250 C 8.757 39.892,9.846 40.829,10.415 41.333 C 10.984 41.837,12.105 42.813,12.906 43.500 C 13.707 44.188,14.833 45.163,15.408 45.667 C 15.983 46.171,17.113 47.146,17.919 47.833 C 18.726 48.521,19.774 49.421,20.249 49.833 C 20.724 50.246,21.808 51.183,22.658 51.917 C 23.508 52.650,24.627 53.628,25.143 54.089 C 25.660 54.551,26.458 55.219,26.917 55.575 C 28.047 56.451,29.333 57.698,29.333 57.917 C 29.333 58.015,28.646 58.693,27.806 59.423 C 26.966 60.153,25.856 61.125,25.340 61.583 C 24.824 62.042,23.738 62.979,22.928 63.667 C 22.117 64.354,21.024 65.292,20.500 65.750 C 19.976 66.208,18.886 67.146,18.078 67.833 C 17.270 68.521,15.591 69.971,14.346 71.055 C 11.139 73.849,10.442 74.449,8.750 75.871 C 5.307 78.764,5.418 78.531,5.838 82.000 C 6.762 89.632,9.037 92.113,16.250 93.354 C 18.622 93.762,64.232 93.686,66.333 93.270 C 72.708 92.010,76.308 88.096,77.161 81.500 C 77.511 78.798,77.448 78.448,76.472 77.634 C 75.999 77.240,75.071 76.429,74.410 75.833 C 73.750 75.237,72.515 74.150,71.668 73.417 C 70.820 72.683,69.622 71.633,69.006 71.083 C 68.389 70.533,67.072 69.371,66.079 68.500 C 64.366 66.998,63.579 66.300,60.866 63.877 C 60.226 63.306,59.338 62.549,58.893 62.197 C 58.448 61.844,57.549 61.074,56.897 60.486 C 56.244 59.898,54.978 58.779,54.084 58.000 C 53.189 57.221,51.919 56.096,51.263 55.500 C 50.606 54.904,49.290 53.742,48.337 52.917 C 47.384 52.092,46.179 51.042,45.660 50.583 C 45.141 50.125,43.941 49.075,42.992 48.250 C 42.044 47.425,40.726 46.262,40.064 45.667 C 39.402 45.071,38.161 43.970,37.305 43.221 C 36.450 42.471,35.150 41.318,34.417 40.659 C 33.683 39.999,32.690 39.159,32.208 38.793 C 31.727 38.426,31.322 38.061,31.308 37.980 C 31.295 37.899,31.276 37.740,31.267 37.625 C 31.253 37.460,35.993 37.399,54.250 37.333 L 77.250 37.250 77.212 35.750 C 77.031 28.549,73.660 24.260,66.833 22.544 C 65.340 22.169,18.936 22.057,16.333 22.422 M117.333 27.158 C 114.429 27.427,110.811 28.136,110.425 28.512 C 110.338 28.597,110.171 28.667,110.055 28.667 C 109.712 28.667,108.071 29.463,107.839 29.743 C 107.722 29.884,107.535 30.000,107.425 30.000 C 107.314 30.000,106.764 30.469,106.202 31.042 C 101.167 36.178,103.496 43.707,110.833 46.011 C 111.063 46.083,111.662 46.302,112.167 46.499 C 112.997 46.822,114.189 47.158,117.083 47.885 C 117.633 48.023,118.908 48.304,119.917 48.509 C 127.248 49.999,129.471 50.743,130.292 51.983 C 133.700 57.129,115.039 57.880,105.309 52.988 C 103.583 52.120,103.672 51.927,103.669 56.548 L 103.667 60.345 104.375 60.640 C 105.103 60.944,105.571 61.091,107.583 61.651 C 116.114 64.027,128.324 63.863,134.167 61.294 C 140.164 58.657,142.084 51.283,137.928 46.849 C 137.080 45.944,134.645 44.242,133.845 43.993 C 133.610 43.920,132.779 43.590,132.000 43.259 C 130.057 42.434,127.382 41.690,122.083 40.502 C 114.393 38.777,112.542 37.936,112.914 36.338 C 113.476 33.922,122.891 33.194,129.917 35.023 C 132.231 35.625,134.234 36.254,136.150 36.981 C 137.381 37.448,137.333 37.592,137.333 33.403 C 137.333 29.110,137.573 29.658,135.417 29.017 C 130.309 27.497,122.431 26.688,117.333 27.158 M213.417 27.097 C 213.142 27.134,212.242 27.247,211.417 27.349 C 208.527 27.705,205.094 28.689,202.946 29.777 C 199.608 31.469,196.678 34.329,195.341 37.203 C 191.727 44.974,193.770 54.025,200.250 58.952 C 207.312 64.320,224.046 64.866,232.583 60.006 C 238.451 56.665,241.440 50.462,240.689 43.186 C 239.814 34.715,234.636 29.645,224.750 27.579 C 222.666 27.144,215.377 26.833,213.417 27.097 M149.177 28.148 C 148.933 28.603,148.929 61.723,149.173 62.178 C 149.323 62.459,158.137 62.728,158.369 62.458 C 158.389 62.435,158.445 59.979,158.494 57.000 L 158.583 51.583 168.000 51.488 C 177.881 51.388,178.034 51.377,180.500 50.565 C 185.596 48.888,188.042 45.325,188.039 39.583 C 188.036 33.371,185.160 29.849,178.750 28.207 C 176.978 27.753,149.417 27.698,149.177 28.148 M244.445 27.944 C 244.344 28.045,244.276 35.115,244.375 35.204 C 244.398 35.224,247.679 35.281,251.667 35.329 L 258.917 35.417 259.000 48.917 L 259.083 62.417 263.667 62.417 L 268.250 62.417 268.333 48.917 L 268.417 35.417 275.568 35.373 C 280.573 35.343,282.788 35.273,282.947 35.142 C 283.127 34.992,283.164 34.239,283.128 31.435 L 283.083 27.917 263.820 27.874 C 253.225 27.851,244.507 27.882,244.445 27.944 M289.411 28.039 C 289.367 28.155,289.350 35.938,289.374 45.333 L 289.417 62.417 294.000 62.417 L 298.583 62.417 298.583 45.167 L 298.583 27.917 294.037 27.872 C 290.491 27.838,289.474 27.874,289.411 28.039 M309.744 28.041 C 309.700 28.156,309.683 35.938,309.707 45.333 L 309.750 62.417 314.292 62.461 C 316.790 62.485,318.850 62.485,318.870 62.461 C 318.891 62.437,318.947 59.342,318.995 55.583 L 319.083 48.750 330.250 48.667 L 341.417 48.583 341.462 45.084 C 341.502 41.940,341.478 41.563,341.222 41.375 C 341.000 41.213,338.488 41.167,329.964 41.167 L 318.992 41.167 319.038 38.208 L 319.083 35.250 330.917 35.167 L 342.750 35.083 342.750 31.500 L 342.750 27.917 326.287 27.874 C 313.204 27.840,309.807 27.875,309.744 28.041 M346.833 28.078 C 346.833 28.212,347.152 28.692,347.542 29.145 C 348.525 30.286,350.782 33.051,351.917 34.505 C 352.570 35.341,353.592 36.580,354.328 37.426 C 354.652 37.798,355.292 38.577,355.750 39.156 C 356.208 39.735,356.921 40.604,357.333 41.087 C 357.746 41.569,358.458 42.430,358.917 42.998 C 359.890 44.206,360.782 45.280,361.846 46.524 C 363.370 48.307,363.240 47.528,363.333 55.409 L 363.417 62.417 367.813 62.461 C 370.917 62.493,372.276 62.450,372.438 62.316 C 372.625 62.160,372.667 60.873,372.667 55.234 L 372.667 48.342 373.708 47.043 C 374.281 46.328,374.957 45.482,375.210 45.163 C 375.463 44.844,376.026 44.160,376.460 43.642 C 377.323 42.613,379.616 39.820,382.303 36.525 C 383.249 35.365,384.424 33.929,384.915 33.333 C 388.033 29.546,389.150 28.108,389.070 27.979 C 389.021 27.899,386.738 27.833,383.997 27.833 C 378.331 27.833,378.983 27.670,377.670 29.417 C 377.326 29.875,376.509 30.925,375.854 31.750 C 375.200 32.575,374.103 33.962,373.417 34.833 C 372.730 35.704,371.485 37.279,370.650 38.333 C 369.815 39.387,368.933 40.530,368.691 40.871 C 368.034 41.797,367.963 41.754,366.000 39.257 C 365.587 38.732,365.025 38.017,364.750 37.667 C 363.824 36.488,362.754 35.136,362.131 34.357 C 361.790 33.932,361.244 33.246,360.917 32.833 C 360.589 32.421,360.043 31.737,359.702 31.314 C 359.362 30.890,358.783 30.150,358.417 29.668 C 358.050 29.186,357.575 28.576,357.360 28.312 L 356.970 27.833 351.902 27.833 C 347.559 27.833,346.833 27.868,346.833 28.078 M222.067 34.748 C 228.144 35.930,231.333 39.579,231.333 45.349 C 231.333 50.328,228.201 54.148,223.144 55.336 C 222.652 55.452,221.987 55.616,221.667 55.701 C 218.463 56.551,211.804 55.819,208.583 54.264 C 200.669 50.441,201.446 38.541,209.809 35.501 C 212.920 34.370,218.396 34.034,222.067 34.748 M174.941 35.436 C 177.771 36.018,178.901 37.550,178.602 40.405 C 178.245 43.824,177.398 44.083,166.583 44.083 L 158.583 44.083 158.539 39.836 C 158.514 37.500,158.531 35.494,158.575 35.378 C 158.710 35.028,173.205 35.079,174.941 35.436 M43.198 69.542 C 43.752 70.023,44.673 70.829,45.245 71.333 C 45.818 71.837,46.909 72.775,47.670 73.417 C 48.430 74.058,49.434 74.925,49.901 75.343 C 50.368 75.760,51.158 76.420,51.656 76.808 C 52.667 77.597,53.070 78.085,52.916 78.334 C 52.782 78.551,31.516 78.558,31.173 78.341 C 30.863 78.144,31.096 77.872,32.917 76.312 C 33.650 75.683,34.850 74.643,35.583 74.000 C 36.317 73.357,37.554 72.289,38.333 71.626 C 39.112 70.962,40.181 70.025,40.707 69.543 C 41.887 68.462,41.957 68.462,43.198 69.542 M103.768 73.430 C 103.599 73.870,103.658 82.895,103.831 83.167 C 103.955 83.360,104.057 83.375,104.287 83.232 C 104.554 83.066,104.588 82.688,104.628 79.428 C 104.682 75.071,104.570 75.116,106.706 78.596 C 108.917 82.201,108.704 82.155,110.364 79.393 C 110.943 78.429,111.546 77.440,111.703 77.195 C 111.861 76.950,112.109 76.539,112.255 76.281 C 112.805 75.306,112.913 75.786,113.000 79.597 C 113.080 83.111,113.096 83.250,113.417 83.250 C 113.774 83.250,114.044 73.644,113.697 73.297 C 113.433 73.033,113.028 73.357,112.472 74.276 C 112.166 74.781,111.598 75.681,111.208 76.277 C 110.819 76.872,110.500 77.389,110.500 77.425 C 110.500 77.650,108.918 80.000,108.767 79.998 C 108.666 79.997,107.758 78.636,106.750 76.975 C 104.337 72.999,104.060 72.669,103.768 73.430 M139.867 73.376 C 139.659 73.627,135.809 81.310,135.432 82.229 C 135.069 83.112,135.091 83.368,135.525 83.303 C 135.919 83.245,135.957 83.191,136.627 81.750 L 137.091 80.750 140.178 80.705 L 143.264 80.660 143.919 81.933 C 144.585 83.227,144.802 83.445,145.253 83.272 C 145.453 83.195,144.997 82.159,143.066 78.296 C 140.442 73.048,140.309 72.843,139.867 73.376 M163.724 73.425 C 163.554 73.868,163.859 73.983,165.334 74.034 L 166.750 74.083 166.833 78.667 L 166.917 83.250 167.333 83.250 L 167.750 83.250 167.833 78.667 L 167.917 74.083 169.417 74.000 C 170.778 73.924,170.917 73.886,170.917 73.583 C 170.917 73.120,163.900 72.966,163.724 73.425 M191.333 73.414 C 187.495 74.652,187.106 80.960,190.750 82.881 C 192.344 83.721,196.371 83.297,196.774 82.247 C 196.984 81.701,196.531 81.558,195.844 81.954 C 193.671 83.204,190.534 82.408,189.562 80.358 C 187.785 76.613,190.920 72.954,194.815 74.228 C 195.958 74.602,196.500 74.586,196.500 74.179 C 196.500 73.352,193.090 72.847,191.333 73.414 M216.180 73.475 C 215.994 73.822,215.933 82.257,216.111 82.967 C 216.180 83.242,216.308 83.337,216.562 83.301 C 216.901 83.252,216.919 83.152,216.957 81.083 C 217.018 77.853,216.731 78.166,219.628 78.169 C 222.720 78.172,222.481 77.961,222.537 80.739 C 222.585 83.123,222.850 83.929,223.336 83.167 C 223.624 82.714,223.545 73.578,223.250 73.333 C 222.699 72.876,222.500 73.406,222.500 75.336 C 222.500 77.491,222.723 77.333,219.673 77.333 C 216.897 77.333,217.026 77.441,216.964 75.075 C 216.915 73.184,216.638 72.619,216.180 73.475 M141.455 77.012 C 142.882 79.860,142.976 79.667,140.167 79.667 C 137.367 79.667,137.469 79.888,138.924 76.986 C 140.226 74.387,140.139 74.386,141.455 77.012 " stroke="none" fill="#1cbb53" fill-rule="evenodd"></path><path id="path1" d="M0.000 54.750 L 0.000 109.500 200.000 109.500 L 400.000 109.500 400.000 54.750 L 400.000 0.000 200.000 0.000 L 0.000 0.000 0.000 54.750 M66.833 22.544 C 73.660 24.260,77.031 28.549,77.212 35.750 L 77.250 37.250 54.250 37.333 C 35.993 37.399,31.253 37.460,31.267 37.625 C 31.276 37.740,31.295 37.899,31.308 37.980 C 31.322 38.061,31.727 38.426,32.208 38.793 C 32.690 39.159,33.683 39.999,34.417 40.659 C 35.150 41.318,36.450 42.471,37.305 43.221 C 38.161 43.970,39.402 45.071,40.064 45.667 C 40.726 46.262,42.044 47.425,42.992 48.250 C 43.941 49.075,45.141 50.125,45.660 50.583 C 46.179 51.042,47.384 52.092,48.337 52.917 C 49.290 53.742,50.606 54.904,51.263 55.500 C 51.919 56.096,53.189 57.221,54.084 58.000 C 54.978 58.779,56.244 59.898,56.897 60.486 C 57.549 61.074,58.448 61.844,58.893 62.197 C 59.338 62.549,60.226 63.306,60.866 63.877 C 63.579 66.300,64.366 66.998,66.079 68.500 C 67.072 69.371,68.389 70.533,69.006 71.083 C 69.622 71.633,70.820 72.683,71.668 73.417 C 72.515 74.150,73.750 75.237,74.410 75.833 C 75.071 76.429,75.999 77.240,76.472 77.634 C 77.448 78.448,77.511 78.798,77.161 81.500 C 76.308 88.096,72.708 92.010,66.333 93.270 C 64.232 93.686,18.622 93.762,16.250 93.354 C 9.037 92.113,6.762 89.632,5.838 82.000 C 5.418 78.531,5.307 78.764,8.750 75.871 C 10.442 74.449,11.139 73.849,14.346 71.055 C 15.591 69.971,17.270 68.521,18.078 67.833 C 18.886 67.146,19.976 66.208,20.500 65.750 C 21.024 65.292,22.117 64.354,22.928 63.667 C 23.738 62.979,24.824 62.042,25.340 61.583 C 25.856 61.125,26.966 60.153,27.806 59.423 C 28.646 58.693,29.333 58.015,29.333 57.917 C 29.333 57.698,28.047 56.451,26.917 55.575 C 26.458 55.219,25.660 54.551,25.143 54.089 C 24.627 53.628,23.508 52.650,22.658 51.917 C 21.808 51.183,20.724 50.246,20.249 49.833 C 19.774 49.421,18.726 48.521,17.919 47.833 C 17.113 47.146,15.983 46.171,15.408 45.667 C 14.833 45.163,13.707 44.188,12.906 43.500 C 12.105 42.813,10.984 41.837,10.415 41.333 C 9.846 40.829,8.757 39.892,7.996 39.250 C 5.335 37.006,5.531 37.463,5.843 34.237 C 6.596 26.447,9.292 23.411,16.333 22.422 C 18.936 22.057,65.340 22.169,66.833 22.544 M128.083 27.484 C 131.427 27.985,135.373 28.887,136.958 29.512 C 137.332 29.659,137.333 29.676,137.333 33.403 C 137.333 37.592,137.381 37.448,136.150 36.981 C 134.234 36.254,132.231 35.625,129.917 35.023 C 122.891 33.194,113.476 33.922,112.914 36.338 C 112.542 37.936,114.393 38.777,122.083 40.502 C 127.382 41.690,130.057 42.434,132.000 43.259 C 132.779 43.590,133.610 43.920,133.845 43.993 C 134.645 44.242,137.080 45.944,137.928 46.849 C 142.084 51.283,140.164 58.657,134.167 61.294 C 128.324 63.863,116.114 64.027,107.583 61.651 C 105.571 61.091,105.103 60.944,104.375 60.640 L 103.667 60.345 103.669 56.548 C 103.672 51.927,103.583 52.120,105.309 52.988 C 111.464 56.082,122.326 57.256,128.080 55.449 C 131.180 54.475,131.552 52.221,128.833 50.884 C 127.245 50.103,125.584 49.660,119.917 48.509 C 118.908 48.304,117.633 48.023,117.083 47.885 C 114.189 47.158,112.997 46.822,112.167 46.499 C 111.662 46.302,111.063 46.083,110.833 46.011 C 105.318 44.279,102.331 39.238,103.958 34.408 C 104.462 32.912,106.752 30.000,107.425 30.000 C 107.535 30.000,107.722 29.884,107.839 29.743 C 108.071 29.463,109.712 28.667,110.055 28.667 C 110.171 28.667,110.338 28.597,110.425 28.512 C 110.811 28.136,114.429 27.427,117.333 27.158 C 119.701 26.940,125.657 27.120,128.083 27.484 M224.750 27.579 C 236.077 29.946,241.663 36.814,240.696 47.186 C 239.721 57.648,231.686 63.210,217.500 63.240 C 204.385 63.268,196.474 58.780,194.164 50.000 C 193.416 47.158,193.548 42.031,194.438 39.366 C 195.810 35.257,198.815 31.870,202.946 29.777 C 205.094 28.689,208.527 27.705,211.417 27.349 C 212.242 27.247,213.142 27.134,213.417 27.097 C 215.377 26.833,222.666 27.144,224.750 27.579 M178.750 28.207 C 185.160 29.849,188.036 33.371,188.039 39.583 C 188.042 45.325,185.596 48.888,180.500 50.565 C 178.034 51.377,177.881 51.388,168.000 51.488 L 158.583 51.583 158.494 57.000 C 158.445 59.979,158.389 62.435,158.369 62.458 C 158.137 62.728,149.323 62.459,149.173 62.178 C 148.929 61.723,148.933 28.603,149.177 28.148 C 149.417 27.698,176.978 27.753,178.750 28.207 M283.128 31.435 C 283.164 34.239,283.127 34.992,282.947 35.142 C 282.788 35.273,280.573 35.343,275.568 35.373 L 268.417 35.417 268.333 48.917 L 268.250 62.417 263.667 62.417 L 259.083 62.417 259.000 48.917 L 258.917 35.417 251.667 35.329 C 247.679 35.281,244.398 35.224,244.375 35.204 C 244.276 35.115,244.344 28.045,244.445 27.944 C 244.507 27.882,253.225 27.851,263.820 27.874 L 283.083 27.917 283.128 31.435 M298.583 45.167 L 298.583 62.417 294.000 62.417 L 289.417 62.417 289.374 45.333 C 289.350 35.938,289.367 28.155,289.411 28.039 C 289.474 27.874,290.491 27.838,294.037 27.872 L 298.583 27.917 298.583 45.167 M342.750 31.500 L 342.750 35.083 330.917 35.167 L 319.083 35.250 319.038 38.208 L 318.992 41.167 329.964 41.167 C 338.488 41.167,341.000 41.213,341.222 41.375 C 341.478 41.563,341.502 41.940,341.462 45.084 L 341.417 48.583 330.250 48.667 L 319.083 48.750 318.995 55.583 C 318.947 59.342,318.891 62.437,318.870 62.461 C 318.850 62.485,316.790 62.485,314.292 62.461 L 309.750 62.417 309.707 45.333 C 309.683 35.938,309.700 28.156,309.744 28.041 C 309.807 27.875,313.204 27.840,326.287 27.874 L 342.750 27.917 342.750 31.500 M357.360 28.312 C 357.575 28.576,358.050 29.186,358.417 29.668 C 358.783 30.150,359.362 30.890,359.702 31.314 C 360.043 31.737,360.589 32.421,360.917 32.833 C 361.244 33.246,361.790 33.932,362.131 34.357 C 362.754 35.136,363.824 36.488,364.750 37.667 C 368.171 42.020,367.984 41.868,368.691 40.871 C 368.933 40.530,369.815 39.387,370.650 38.333 C 371.485 37.279,372.730 35.704,373.417 34.833 C 374.103 33.962,375.200 32.575,375.854 31.750 C 376.509 30.925,377.326 29.875,377.670 29.417 C 378.983 27.670,378.331 27.833,383.997 27.833 C 386.738 27.833,389.021 27.899,389.070 27.979 C 389.150 28.108,388.033 29.546,384.915 33.333 C 384.424 33.929,383.249 35.365,382.303 36.525 C 379.616 39.820,377.323 42.613,376.460 43.642 C 376.026 44.160,375.463 44.844,375.210 45.163 C 374.957 45.482,374.281 46.328,373.708 47.043 L 372.667 48.342 372.667 55.234 C 372.667 60.873,372.625 62.160,372.438 62.316 C 372.276 62.450,370.917 62.493,367.813 62.461 L 363.417 62.417 363.333 55.409 C 363.240 47.528,363.370 48.307,361.846 46.524 C 360.782 45.280,359.890 44.206,358.917 42.998 C 358.458 42.430,357.746 41.569,357.333 41.087 C 356.921 40.604,356.208 39.735,355.750 39.156 C 355.292 38.577,354.652 37.798,354.328 37.426 C 353.592 36.580,352.570 35.341,351.917 34.505 C 350.782 33.051,348.525 30.286,347.542 29.145 C 346.358 27.771,346.150 27.833,351.902 27.833 L 356.970 27.833 357.360 28.312 M214.474 34.496 C 208.022 35.125,203.972 38.275,203.312 43.179 C 202.337 50.421,206.230 54.902,214.326 55.859 C 216.030 56.060,220.690 55.960,221.667 55.701 C 221.987 55.616,222.652 55.452,223.144 55.336 C 229.172 53.920,232.349 48.796,231.064 42.559 C 229.843 36.636,223.610 33.606,214.474 34.496 M158.575 35.378 C 158.531 35.494,158.514 37.500,158.539 39.836 L 158.583 44.083 166.583 44.083 C 175.433 44.083,175.998 44.032,177.197 43.112 C 179.371 41.446,179.061 37.146,176.679 35.925 C 175.243 35.189,158.838 34.693,158.575 35.378 M40.707 69.543 C 40.181 70.025,39.112 70.962,38.333 71.626 C 37.554 72.289,36.317 73.357,35.583 74.000 C 34.850 74.643,33.650 75.683,32.917 76.312 C 31.096 77.872,30.863 78.144,31.173 78.341 C 31.516 78.558,52.782 78.551,52.916 78.334 C 53.070 78.085,52.667 77.597,51.656 76.808 C 51.158 76.420,50.368 75.760,49.901 75.343 C 49.434 74.925,48.430 74.058,47.670 73.417 C 46.909 72.775,45.818 71.837,45.245 71.333 C 41.661 68.178,42.036 68.326,40.707 69.543 M104.613 73.560 C 104.780 73.777,105.742 75.313,106.750 76.975 C 107.758 78.636,108.666 79.997,108.767 79.998 C 108.918 80.000,110.500 77.650,110.500 77.425 C 110.500 77.389,110.819 76.872,111.208 76.277 C 111.598 75.681,112.166 74.781,112.472 74.276 C 113.028 73.357,113.433 73.033,113.697 73.297 C 114.044 73.644,113.774 83.250,113.417 83.250 C 113.096 83.250,113.080 83.111,113.000 79.597 C 112.913 75.786,112.805 75.306,112.255 76.281 C 112.109 76.539,111.861 76.950,111.703 77.195 C 111.546 77.440,110.943 78.429,110.364 79.393 C 108.704 82.155,108.917 82.201,106.706 78.596 C 104.570 75.116,104.682 75.071,104.628 79.428 C 104.588 82.688,104.554 83.066,104.287 83.232 C 103.739 83.574,103.672 83.041,103.669 78.305 C 103.666 72.906,103.757 72.451,104.613 73.560 M140.438 73.294 C 140.882 73.583,145.510 83.173,145.253 83.272 C 144.802 83.445,144.585 83.227,143.919 81.933 L 143.264 80.660 140.178 80.705 L 137.091 80.750 136.627 81.750 C 135.957 83.191,135.919 83.245,135.525 83.303 C 134.828 83.407,134.961 83.057,137.696 77.584 C 140.022 72.928,139.979 72.996,140.438 73.294 M170.917 73.583 C 170.917 73.886,170.778 73.924,169.417 74.000 L 167.917 74.083 167.833 78.667 L 167.750 83.250 167.333 83.250 L 166.917 83.250 166.833 78.667 L 166.750 74.083 165.334 74.034 C 163.859 73.983,163.554 73.868,163.724 73.425 C 163.900 72.966,170.917 73.120,170.917 73.583 M195.958 73.570 C 197.255 74.259,196.405 74.748,194.815 74.228 C 190.920 72.954,187.785 76.613,189.562 80.358 C 190.534 82.408,193.671 83.204,195.844 81.954 C 196.531 81.558,196.984 81.701,196.774 82.247 C 196.371 83.297,192.344 83.721,190.750 82.881 C 187.106 80.960,187.495 74.652,191.333 73.414 C 192.371 73.079,195.214 73.175,195.958 73.570 M216.964 75.075 C 217.026 77.441,216.897 77.333,219.673 77.333 C 222.723 77.333,222.500 77.491,222.500 75.336 C 222.500 73.406,222.699 72.876,223.250 73.333 C 223.545 73.578,223.624 82.714,223.336 83.167 C 222.850 83.929,222.585 83.123,222.537 80.739 C 222.481 77.961,222.720 78.172,219.628 78.169 C 216.731 78.166,217.018 77.853,216.957 81.083 C 216.919 83.152,216.901 83.252,216.562 83.301 C 216.044 83.374,216.015 83.103,216.009 78.193 C 216.004 73.713,216.082 73.094,216.636 73.200 C 216.875 73.246,216.924 73.524,216.964 75.075 M138.924 76.986 C 137.469 79.888,137.367 79.667,140.167 79.667 C 142.976 79.667,142.882 79.860,141.455 77.012 C 140.139 74.386,140.226 74.387,138.924 76.986 " stroke="none" fill="#242423" fill-rule="evenodd"></path></g></svg>