<svg id="svg" version="1.1" xmlns="http://www.w3.org/2000/svg" xmlns:xlink="http://www.w3.org/1999/xlink" width="400" height="401.79372197309414" viewBox="0, 0, 400,401.79372197309414"><g id="svgg"><path id="path0" d="M0.000 200.800 L 0.000 401.600 200.000 401.600 L 400.000 401.600 400.000 200.800 L 400.000 0.000 200.000 0.000 L 0.000 0.000 0.000 200.800 M308.600 15.225 C 320.121 16.004,323.506 16.355,325.800 17.007 C 327.120 17.383,329.329 17.843,330.709 18.030 C 332.089 18.218,333.799 18.636,334.509 18.961 C 336.975 20.086,338.901 20.800,339.474 20.800 C 339.791 20.800,341.935 21.700,344.239 22.800 C 346.542 23.900,348.608 24.800,348.830 24.800 C 349.053 24.800,350.086 25.596,351.126 26.570 C 352.166 27.543,353.506 28.461,354.102 28.611 C 356.364 29.179,366.586 39.037,369.000 42.979 C 369.440 43.697,370.043 44.575,370.339 44.931 C 371.269 46.045,374.668 53.333,374.942 54.800 C 375.085 55.570,375.652 57.086,376.201 58.168 C 376.751 59.250,377.206 60.600,377.213 61.168 C 377.220 61.736,377.477 62.532,377.785 62.939 C 378.093 63.345,378.466 64.875,378.614 66.339 C 378.762 67.802,379.119 69.375,379.408 69.834 C 380.400 71.413,381.846 92.498,381.009 93.192 C 380.681 93.465,341.566 93.632,262.193 93.699 C 163.124 93.784,143.837 93.888,143.686 94.341 C 143.475 94.975,149.062 100.591,151.400 102.095 C 152.694 102.927,159.440 109.000,164.800 114.157 C 165.350 114.686,166.340 115.456,167.000 115.868 C 168.384 116.732,168.990 117.265,176.177 123.932 C 179.102 126.645,182.091 129.227,182.820 129.671 C 183.549 130.114,186.228 132.492,188.773 134.956 C 191.318 137.419,194.120 139.956,195.000 140.593 C 197.032 142.065,200.129 144.765,205.463 149.718 C 207.784 151.873,210.645 154.347,211.822 155.216 C 212.999 156.086,215.936 158.642,218.350 160.898 C 224.406 166.558,225.593 167.605,227.781 169.206 C 228.828 169.973,232.051 172.822,234.943 175.538 C 237.834 178.254,240.920 180.936,241.800 181.498 C 242.680 182.060,245.560 184.611,248.200 187.166 C 250.840 189.720,253.525 192.168,254.166 192.605 C 255.866 193.764,259.413 196.839,264.427 201.502 C 266.854 203.758,269.811 206.322,271.000 207.200 C 272.189 208.078,275.136 210.642,277.550 212.898 C 283.638 218.588,284.800 219.611,286.994 221.206 C 288.048 221.973,291.221 224.800,294.044 227.488 C 296.868 230.176,299.948 232.856,300.889 233.443 C 301.830 234.030,304.670 236.524,307.200 238.986 C 309.730 241.447,312.537 243.987,313.439 244.630 C 315.684 246.233,318.959 249.076,323.907 253.718 C 326.204 255.873,329.045 258.347,330.222 259.216 C 331.399 260.086,334.395 262.689,336.881 265.003 C 339.366 267.316,341.850 269.626,342.400 270.136 C 342.950 270.647,344.570 271.949,346.000 273.031 C 347.430 274.113,350.999 277.293,353.930 280.099 C 356.862 282.905,359.472 285.202,359.730 285.204 C 359.989 285.205,362.736 287.590,365.835 290.504 C 371.627 295.949,372.519 296.744,374.592 298.315 C 376.860 300.033,378.983 301.799,380.275 303.043 L 381.566 304.286 381.376 309.243 C 380.987 319.411,379.768 327.927,377.659 335.200 C 377.436 335.970,376.971 337.615,376.626 338.856 C 376.280 340.097,375.729 341.627,375.401 342.256 C 375.073 342.885,374.800 343.580,374.794 343.800 C 374.787 344.020,374.430 344.650,374.000 345.200 C 373.570 345.750,373.214 346.491,373.209 346.846 C 373.204 347.201,372.865 347.921,372.455 348.446 C 372.045 348.971,371.575 349.829,371.411 350.354 C 370.090 354.568,359.519 366.005,353.623 369.600 C 352.000 370.590,349.679 372.165,348.466 373.100 C 347.197 374.078,345.823 374.803,345.230 374.806 C 344.664 374.809,343.750 375.071,343.200 375.389 C 342.650 375.706,341.750 376.163,341.200 376.404 C 340.650 376.644,339.468 377.192,338.574 377.621 C 337.679 378.049,336.560 378.400,336.086 378.400 C 335.612 378.400,334.544 378.744,333.712 379.163 C 332.835 379.606,330.856 380.040,329.000 380.197 C 327.240 380.346,325.440 380.691,325.000 380.965 C 324.043 381.560,318.656 382.202,309.400 382.823 C 304.470 383.154,271.637 383.235,190.000 383.117 C 75.844 382.954,74.445 382.936,67.800 381.549 C 66.700 381.320,64.720 380.968,63.400 380.768 C 62.080 380.567,60.100 380.215,59.000 379.984 C 57.900 379.753,56.460 379.460,55.800 379.332 C 55.140 379.204,54.420 378.967,54.200 378.806 C 53.980 378.645,53.170 378.395,52.400 378.252 C 51.630 378.109,49.740 377.474,48.200 376.841 C 46.660 376.208,44.499 375.398,43.397 375.040 C 37.490 373.121,27.565 364.812,23.521 358.400 C 21.503 355.201,18.000 347.870,18.000 346.847 C 18.000 346.363,17.658 345.298,17.241 344.480 C 16.823 343.661,16.359 341.914,16.210 340.596 C 16.060 339.278,15.699 337.390,15.407 336.400 C 14.789 334.305,14.112 328.929,13.818 323.800 C 13.705 321.820,13.430 319.571,13.206 318.803 C 12.983 318.034,12.801 314.884,12.802 311.803 C 12.804 305.194,13.087 304.488,17.000 301.324 C 20.065 298.844,20.939 298.084,25.144 294.244 C 27.045 292.509,29.500 290.419,30.600 289.600 C 31.700 288.781,34.155 286.691,36.056 284.956 C 40.769 280.652,41.579 279.956,43.221 278.800 C 44.790 277.696,44.642 277.824,50.000 272.947 C 52.089 271.045,54.429 269.020,55.200 268.447 C 55.970 267.873,58.422 265.783,60.648 263.802 C 65.400 259.574,66.271 258.820,69.200 256.400 C 72.231 253.895,73.176 253.069,77.144 249.444 C 79.045 247.709,81.500 245.619,82.600 244.800 C 83.700 243.981,86.155 241.891,88.056 240.156 C 92.717 235.899,93.567 235.166,95.200 234.000 C 96.887 232.795,97.581 232.192,103.482 226.800 C 106.010 224.490,108.316 222.510,108.606 222.400 C 108.895 222.290,111.353 220.175,114.066 217.701 C 116.780 215.226,119.351 212.886,119.779 212.501 C 120.208 212.115,121.198 211.350,121.979 210.800 C 123.616 209.648,124.619 208.794,128.556 205.200 C 130.123 203.770,132.090 202.010,132.928 201.290 C 135.081 199.438,134.998 198.623,132.434 196.433 C 131.253 195.425,128.610 193.031,126.559 191.114 C 124.508 189.197,122.080 187.156,121.164 186.578 C 120.249 185.999,117.571 183.698,115.214 181.463 C 112.858 179.228,110.495 177.073,109.965 176.673 C 109.434 176.273,108.010 175.219,106.800 174.330 C 105.590 173.442,103.034 171.207,101.121 169.364 C 99.208 167.522,97.102 165.685,96.441 165.283 C 95.780 164.881,93.116 162.613,90.520 160.242 C 87.924 157.871,85.371 155.542,84.846 155.066 C 84.322 154.590,83.459 153.912,82.928 153.560 C 81.314 152.489,78.891 150.389,74.585 146.330 C 72.327 144.202,69.724 141.983,68.800 141.400 C 67.876 140.817,65.271 138.598,63.010 136.470 C 60.750 134.341,57.676 131.700,56.180 130.600 C 54.683 129.500,51.582 126.837,49.288 124.682 C 46.994 122.527,44.155 120.053,42.978 119.184 C 41.801 118.314,38.866 115.758,36.456 113.502 C 34.045 111.246,31.651 109.082,31.136 108.692 C 30.621 108.303,29.210 107.249,28.000 106.350 C 26.790 105.452,24.165 103.136,22.167 101.205 C 20.168 99.274,17.828 97.245,16.967 96.697 C 12.052 93.568,12.044 93.490,14.382 70.200 C 14.914 64.909,16.538 57.166,17.991 53.000 C 18.375 51.900,19.013 50.010,19.410 48.800 C 19.806 47.590,20.461 46.171,20.865 45.646 C 21.269 45.121,21.600 44.381,21.600 44.000 C 21.600 43.619,21.935 42.879,22.345 42.354 C 22.755 41.829,23.228 40.950,23.396 40.400 C 23.910 38.719,34.421 27.501,35.932 27.022 C 36.351 26.888,37.016 26.424,37.409 25.990 C 37.802 25.555,38.338 25.200,38.600 25.200 C 38.862 25.200,39.382 24.862,39.756 24.448 C 40.131 24.035,41.123 23.587,41.962 23.452 C 42.801 23.318,44.908 22.507,46.644 21.650 C 49.694 20.144,51.659 19.544,58.717 17.967 C 60.541 17.560,62.240 17.099,62.491 16.943 C 63.008 16.624,73.652 15.650,81.200 15.231 C 88.602 14.820,302.526 14.814,308.600 15.225 M198.304 254.976 C 196.935 255.691,194.372 257.830,188.440 263.206 C 185.888 265.520,182.900 268.126,181.800 268.998 C 179.716 270.649,174.627 275.228,171.701 278.084 C 170.767 278.996,169.543 280.044,168.982 280.412 C 167.540 281.357,165.379 283.203,160.329 287.800 C 157.912 290.000,155.607 291.980,155.206 292.200 C 152.497 293.688,142.843 303.403,143.460 304.020 C 144.123 304.683,256.092 304.325,256.314 303.659 C 256.535 302.994,250.866 297.354,248.433 295.820 C 247.462 295.207,245.032 293.132,243.033 291.207 C 241.035 289.283,237.780 286.487,235.800 284.994 C 233.820 283.501,230.565 280.707,228.567 278.786 C 226.568 276.866,224.165 274.809,223.227 274.217 C 222.288 273.625,219.671 271.398,217.410 269.270 C 215.150 267.141,212.067 264.500,210.560 263.400 C 209.052 262.300,206.184 259.825,204.185 257.900 C 200.358 254.215,200.054 254.064,198.304 254.976 " stroke="none" fill="#0e0e0e" fill-rule="evenodd"></path><path id="path1" d="M81.200 15.231 C 73.652 15.650,63.008 16.624,62.491 16.943 C 62.240 17.099,60.541 17.560,58.717 17.967 C 51.659 19.544,49.694 20.144,46.644 21.650 C 44.908 22.507,42.801 23.318,41.962 23.452 C 41.123 23.587,40.131 24.035,39.756 24.448 C 39.382 24.862,38.862 25.200,38.600 25.200 C 38.338 25.200,37.802 25.555,37.409 25.990 C 37.016 26.424,36.351 26.888,35.932 27.022 C 34.421 27.501,23.910 38.719,23.396 40.400 C 23.228 40.950,22.755 41.829,22.345 42.354 C 21.935 42.879,21.600 43.619,21.600 44.000 C 21.600 44.381,21.269 45.121,20.865 45.646 C 20.461 46.171,19.806 47.590,19.410 48.800 C 19.013 50.010,18.375 51.900,17.991 53.000 C 16.538 57.166,14.914 64.909,14.382 70.200 C 12.044 93.490,12.052 93.568,16.967 96.697 C 17.828 97.245,20.168 99.274,22.167 101.205 C 24.165 103.136,26.790 105.452,28.000 106.350 C 29.210 107.249,30.621 108.303,31.136 108.692 C 31.651 109.082,34.045 111.246,36.456 113.502 C 38.866 115.758,41.801 118.314,42.978 119.184 C 44.155 120.053,46.994 122.527,49.288 124.682 C 51.582 126.837,54.683 129.500,56.180 130.600 C 57.676 131.700,60.750 134.341,63.010 136.470 C 65.271 138.598,67.876 140.817,68.800 141.400 C 69.724 141.983,72.327 144.202,74.585 146.330 C 78.891 150.389,81.314 152.489,82.928 153.560 C 83.459 153.912,84.322 154.590,84.846 155.066 C 85.371 155.542,87.924 157.871,90.520 160.242 C 93.116 162.613,95.780 164.881,96.441 165.283 C 97.102 165.685,99.208 167.522,101.121 169.364 C 103.034 171.207,105.590 173.442,106.800 174.330 C 108.010 175.219,109.434 176.273,109.965 176.673 C 110.495 177.073,112.858 179.228,115.214 181.463 C 117.571 183.698,120.249 185.999,121.164 186.578 C 122.080 187.156,124.508 189.197,126.559 191.114 C 128.610 193.031,131.253 195.425,132.434 196.433 C 134.998 198.623,135.081 199.438,132.928 201.290 C 132.090 202.010,130.123 203.770,128.556 205.200 C 124.619 208.794,123.616 209.648,121.979 210.800 C 121.198 211.350,120.208 212.115,119.779 212.501 C 119.351 212.886,116.780 215.226,114.066 217.701 C 111.353 220.175,108.895 222.290,108.606 222.400 C 108.316 222.510,106.010 224.490,103.482 226.800 C 97.581 232.192,96.887 232.795,95.200 234.000 C 93.567 235.166,92.717 235.899,88.056 240.156 C 86.155 241.891,83.700 243.981,82.600 244.800 C 81.500 245.619,79.045 247.709,77.144 249.444 C 73.176 253.069,72.231 253.895,69.200 256.400 C 66.271 258.820,65.400 259.574,60.648 263.802 C 58.422 265.783,55.970 267.873,55.200 268.447 C 54.429 269.020,52.089 271.045,50.000 272.947 C 44.642 277.824,44.790 277.696,43.221 278.800 C 41.579 279.956,40.769 280.652,36.056 284.956 C 34.155 286.691,31.700 288.781,30.600 289.600 C 29.500 290.419,27.045 292.509,25.144 294.244 C 20.939 298.084,20.065 298.844,17.000 301.324 C 13.087 304.488,12.804 305.194,12.802 311.803 C 12.801 314.884,12.983 318.034,13.206 318.803 C 13.430 319.571,13.705 321.820,13.818 323.800 C 14.112 328.929,14.789 334.305,15.407 336.400 C 15.699 337.390,16.060 339.278,16.210 340.596 C 16.359 341.914,16.823 343.661,17.241 344.480 C 17.658 345.298,18.000 346.363,18.000 346.847 C 18.000 347.870,21.503 355.201,23.521 358.400 C 27.565 364.812,37.490 373.121,43.397 375.040 C 44.499 375.398,46.660 376.208,48.200 376.841 C 49.740 377.474,51.630 378.109,52.400 378.252 C 53.170 378.395,53.980 378.645,54.200 378.806 C 54.420 378.967,55.140 379.204,55.800 379.332 C 56.460 379.460,57.900 379.753,59.000 379.984 C 60.100 380.215,62.080 380.567,63.400 380.768 C 64.720 380.968,66.700 381.320,67.800 381.549 C 74.445 382.936,75.844 382.954,190.000 383.117 C 271.637 383.235,304.470 383.154,309.400 382.823 C 318.656 382.202,324.043 381.560,325.000 380.965 C 325.440 380.691,327.240 380.346,329.000 380.197 C 330.856 380.040,332.835 379.606,333.712 379.163 C 334.544 378.744,335.612 378.400,336.086 378.400 C 336.560 378.400,337.679 378.049,338.574 377.621 C 339.468 377.192,340.650 376.644,341.200 376.404 C 341.750 376.163,342.650 375.706,343.200 375.389 C 343.750 375.071,344.664 374.809,345.230 374.806 C 345.823 374.803,347.197 374.078,348.466 373.100 C 349.679 372.165,352.000 370.590,353.623 369.600 C 359.519 366.005,370.090 354.568,371.411 350.354 C 371.575 349.829,372.045 348.971,372.455 348.446 C 372.865 347.921,373.204 347.201,373.209 346.846 C 373.214 346.491,373.570 345.750,374.000 345.200 C 374.430 344.650,374.787 344.020,374.794 343.800 C 374.800 343.580,375.073 342.885,375.401 342.256 C 375.729 341.627,376.280 340.097,376.626 338.856 C 376.971 337.615,377.436 335.970,377.659 335.200 C 379.768 327.927,380.987 319.411,381.376 309.243 L 381.566 304.286 380.275 303.043 C 378.983 301.799,376.860 300.033,374.592 298.315 C 372.519 296.744,371.627 295.949,365.835 290.504 C 362.736 287.590,359.989 285.205,359.730 285.204 C 359.472 285.202,356.862 282.905,353.930 280.099 C 350.999 277.293,347.430 274.113,346.000 273.031 C 344.570 271.949,342.950 270.647,342.400 270.136 C 341.850 269.626,339.366 267.316,336.881 265.003 C 334.395 262.689,331.399 260.086,330.222 259.216 C 329.045 258.347,326.204 255.873,323.907 253.718 C 318.959 249.076,315.684 246.233,313.439 244.630 C 312.537 243.987,309.730 241.447,307.200 238.986 C 304.670 236.524,301.830 234.030,300.889 233.443 C 299.948 232.856,296.868 230.176,294.044 227.488 C 291.221 224.800,288.048 221.973,286.994 221.206 C 284.800 219.611,283.638 218.588,277.550 212.898 C 275.136 210.642,272.189 208.078,271.000 207.200 C 269.811 206.322,266.854 203.758,264.427 201.502 C 259.413 196.839,255.866 193.764,254.166 192.605 C 253.525 192.168,250.840 189.720,248.200 187.166 C 245.560 184.611,242.680 182.060,241.800 181.498 C 240.920 180.936,237.834 178.254,234.943 175.538 C 232.051 172.822,228.828 169.973,227.781 169.206 C 225.593 167.605,224.406 166.558,218.350 160.898 C 215.936 158.642,212.999 156.086,211.822 155.216 C 210.645 154.347,207.784 151.873,205.463 149.718 C 200.129 144.765,197.032 142.065,195.000 140.593 C 194.120 139.956,191.318 137.419,188.773 134.956 C 186.228 132.492,183.549 130.114,182.820 129.671 C 182.091 129.227,179.102 126.645,176.177 123.932 C 168.990 117.265,168.384 116.732,167.000 115.868 C 166.340 115.456,165.350 114.686,164.800 114.157 C 159.440 109.000,152.694 102.927,151.400 102.095 C 149.062 100.591,143.475 94.975,143.686 94.341 C 143.837 93.888,163.124 93.784,262.193 93.699 C 341.566 93.632,380.681 93.465,381.009 93.192 C 381.846 92.498,380.400 71.413,379.408 69.834 C 379.119 69.375,378.762 67.802,378.614 66.339 C 378.466 64.875,378.093 63.345,377.785 62.939 C 377.477 62.532,377.220 61.736,377.213 61.168 C 377.206 60.600,376.751 59.250,376.201 58.168 C 375.652 57.086,375.085 55.570,374.942 54.800 C 374.668 53.333,371.269 46.045,370.339 44.931 C 370.043 44.575,369.440 43.697,369.000 42.979 C 366.586 39.037,356.364 29.179,354.102 28.611 C 353.506 28.461,352.166 27.543,351.126 26.570 C 350.086 25.596,349.053 24.800,348.830 24.800 C 348.608 24.800,346.542 23.900,344.239 22.800 C 341.935 21.700,339.791 20.800,339.474 20.800 C 338.901 20.800,336.975 20.086,334.509 18.961 C 333.799 18.636,332.089 18.218,330.709 18.030 C 329.329 17.843,327.120 17.383,325.800 17.007 C 323.506 16.355,320.121 16.004,308.600 15.225 C 302.526 14.814,88.602 14.820,81.200 15.231 M204.185 257.900 C 206.184 259.825,209.052 262.300,210.560 263.400 C 212.067 264.500,215.150 267.141,217.410 269.270 C 219.671 271.398,222.288 273.625,223.227 274.217 C 224.165 274.809,226.568 276.866,228.567 278.786 C 230.565 280.707,233.820 283.501,235.800 284.994 C 237.780 286.487,241.035 289.283,243.033 291.207 C 245.032 293.132,247.462 295.207,248.433 295.820 C 250.866 297.354,256.535 302.994,256.314 303.659 C 256.092 304.325,144.123 304.683,143.460 304.020 C 142.843 303.403,152.497 293.688,155.206 292.200 C 155.607 291.980,157.912 290.000,160.329 287.800 C 165.379 283.203,167.540 281.357,168.982 280.412 C 169.543 280.044,170.767 278.996,171.701 278.084 C 174.627 275.228,179.716 270.649,181.800 268.998 C 182.900 268.126,185.888 265.520,188.440 263.206 C 199.886 252.831,199.171 253.072,204.185 257.900 " stroke="none" fill="#1cbc54" fill-rule="evenodd"></path></g></svg>